<svg width="70" height="70" viewBox="0 0 70 70" fill="none" xmlns="http://www.w3.org/2000/svg">
<path d="M40.498 29.5022C42.6852 29.5022 44.7829 30.3711 46.3295 31.9177C47.8761 33.4643 48.7449 35.5619 48.7449 37.7492V47.3707H43.247V37.7492C43.247 37.0201 42.9573 36.3209 42.4418 35.8053C41.9263 35.2898 41.227 35.0002 40.498 35.0002C39.7689 35.0002 39.0697 35.2898 38.5541 35.8053C38.0386 36.3209 37.749 37.0201 37.749 37.7492V47.3707H32.251V37.7492C32.251 35.5619 33.1199 33.4643 34.6665 31.9177C36.2131 30.3711 38.3107 29.5022 40.498 29.5022Z" fill="white"/>
<path d="M26.7531 30.8765H21.2551V47.3704H26.7531V30.8765Z" fill="white"/>
<path d="M24.0041 26.7531C25.5223 26.7531 26.7531 25.5223 26.7531 24.0041C26.7531 22.4859 25.5223 21.2551 24.0041 21.2551C22.4859 21.2551 21.2551 22.4859 21.2551 24.0041C21.2551 25.5223 22.4859 26.7531 24.0041 26.7531Z" fill="white"/>
</svg>
