<svg width="70" height="71" viewBox="0 0 70 71" fill="none" xmlns="http://www.w3.org/2000/svg">
<path d="M17.2673 36.6924L17.4183 36.4516L26.5231 22.0049C26.6561 21.7934 26.9689 21.8152 27.0696 22.045C28.5907 25.5026 29.9032 29.8027 29.2883 32.4798C29.0258 33.5813 28.3066 35.073 27.4975 36.4516C27.3933 36.6523 27.2782 36.8492 27.1559 37.0388C27.0984 37.1264 27.0013 37.1774 26.897 37.1774H17.5334C17.2816 37.1774 17.1342 36.9003 17.2673 36.6924Z" fill="white"/>
<path d="M57.8502 39.3767V41.6635C57.8502 41.7948 57.7711 41.9115 57.656 41.9625C56.9513 42.2689 54.5384 43.3922 53.5352 44.8074C50.9749 48.4218 49.0188 53.59 44.6461 53.59H26.4042C19.9389 53.59 14.6997 48.2577 14.6997 41.678V41.4665C14.6997 41.2914 14.8399 41.1492 15.0125 41.1492H25.1817C25.383 41.1492 25.5304 41.3389 25.5125 41.5394C25.4406 42.2105 25.5629 42.8962 25.8757 43.5199C26.4798 44.7636 27.7311 45.5405 29.0832 45.5405H34.1174V41.5541H29.1407C28.8854 41.5541 28.7344 41.2549 28.8819 41.0434C28.9358 40.9595 28.9969 40.872 29.0616 40.7736C29.5327 40.0952 30.2051 39.0411 30.874 37.8412C31.3306 37.0315 31.7729 36.1671 32.1289 35.2991C32.2009 35.1422 32.2583 34.9817 32.3159 34.8248C32.413 34.5477 32.5137 34.2887 32.5856 34.0298C32.6575 33.8109 32.715 33.5812 32.7725 33.366C32.9416 32.6292 33.0135 31.8487 33.0135 31.039C33.0135 30.7217 32.9991 30.3898 32.9704 30.0725C32.9559 29.7261 32.9128 29.3795 32.8696 29.033C32.8409 28.7267 32.787 28.4239 32.7294 28.1066C32.6575 27.6434 32.5568 27.1839 32.4417 26.7207L32.4022 26.5457C32.3159 26.2283 32.244 25.9256 32.1433 25.6083C31.8592 24.6126 31.532 23.6424 31.1868 22.7343C31.0609 22.3732 30.9171 22.0267 30.7732 21.6802C30.5611 21.1587 30.3453 20.6845 30.1476 20.2359C30.0469 20.0316 29.9606 19.8456 29.8743 19.656C29.7772 19.4408 29.6766 19.2256 29.5758 19.0214C29.5039 18.8646 29.4212 18.7187 29.3637 18.5727L28.7488 17.4202C28.6625 17.2634 28.8063 17.0774 28.9753 17.1248L32.8229 18.1825H32.8337C32.8409 18.1825 32.8445 18.1862 32.8481 18.1862L33.3551 18.3284L33.9125 18.4889L34.1174 18.5472V16.2276C34.1174 15.1079 35.002 14.1997 36.0952 14.1997C36.6417 14.1997 37.138 14.4258 37.494 14.7942C37.8499 15.1626 38.0729 15.6659 38.0729 16.2276V19.6706L38.4829 19.7873C38.5152 19.7983 38.5475 19.8128 38.5763 19.8347C38.677 19.9113 38.8208 20.0243 39.0042 20.163C39.1481 20.2796 39.3027 20.4219 39.4897 20.5678C39.86 20.8705 40.3023 21.2608 40.7878 21.7094C40.9172 21.8224 41.0431 21.9392 41.1581 22.0559C41.7839 22.6467 42.485 23.3397 43.1539 24.1056C43.3409 24.3208 43.5243 24.5396 43.7112 24.7694C43.8982 25.0028 44.096 25.2326 44.2686 25.4624C44.4951 25.7688 44.7396 26.0861 44.9518 26.418C45.0525 26.5748 45.1676 26.7353 45.2646 26.8921C45.5379 27.3115 45.7789 27.7456 46.009 28.1796C46.1061 28.3802 46.2068 28.599 46.2931 28.8142C46.5484 29.3941 46.7497 29.985 46.8792 30.5758C46.9187 30.7035 46.9475 30.8421 46.9619 30.9661V30.9953C47.005 31.1703 47.0194 31.3563 47.0338 31.546C47.0913 32.1515 47.0626 32.7569 46.9331 33.366C46.8792 33.625 46.8073 33.8693 46.721 34.1283C46.6347 34.3763 46.5484 34.6352 46.4369 34.8796C46.2212 35.3865 45.9658 35.8935 45.6638 36.3677C45.5667 36.5427 45.4516 36.7288 45.3365 36.9038C45.2107 37.0898 45.0812 37.2649 44.9662 37.4363C44.808 37.6552 44.639 37.8849 44.4664 38.0892C44.3117 38.3044 44.1535 38.5196 43.9809 38.7092C43.74 38.9973 43.5098 39.2709 43.2689 39.5335C43.1251 39.7049 42.9705 39.88 42.8122 40.0368C42.6577 40.2118 42.4994 40.3687 42.3556 40.5146C42.1147 40.7589 41.9133 40.9486 41.7442 41.1054L41.3488 41.4738C41.2912 41.5249 41.2157 41.5541 41.1366 41.5541H38.0729V45.5405H41.9276C42.7907 45.5405 43.6106 45.2305 44.2722 44.6615C44.4987 44.4609 45.4876 43.5929 46.6562 42.2835C46.6958 42.2397 46.7462 42.2069 46.8037 42.1923L57.4511 39.0703C57.6489 39.0119 57.8502 39.1651 57.8502 39.3767Z" fill="white"/>
</svg>
